Coordinates
version=1
nRows=38
nColumns=12
inDegrees=yes

Units are S.I. units (second, meters, Newtons, ...)
Angles are in degrees

endheader
time	SC_y	SC_z	SC_x	AC_y	AC_z	AC_x	GH_y	GH_z	GH_yy	EL_x	PS_y
       0.0              -19.06          16.84          66.71          62.02         -13.82         -13.88          22.78          25.35         -153.0          32.81          23.81
   0.01327              -19.06          16.84           66.7          62.02         -13.82         -13.88           22.8          25.35         -153.0          32.82          23.83
   0.02655              -19.07          16.84           66.7          62.01         -13.81         -13.87          22.82          25.35         -153.0          32.82          23.85
   0.03982              -19.07          16.84          66.69          62.01         -13.81         -13.87          22.84          25.36         -153.0          32.83          23.87
    0.0531              -19.07          16.84          66.68           62.0         -13.81         -13.87          22.87          25.36         -153.0          32.83          23.89
   0.06637              -19.08          16.84          66.67           62.0         -13.81         -13.87          22.89          25.37         -152.9          32.84          23.91
   0.07965              -19.09          16.84          66.66          61.99          -13.8         -13.86          22.92          25.37         -152.9          32.84          23.94
   0.09292              -19.09          16.84          66.65          61.99          -13.8         -13.86          22.95          25.38         -152.9          32.85          23.97
    0.1062               -19.1          16.83          66.64          61.98         -13.79         -13.86          22.98          25.38         -152.9          32.85           24.0
    0.1195               -19.1          16.83          66.63          61.97         -13.79         -13.85          23.01          25.39         -152.8          32.86          24.03
    0.1327              -19.11          16.83          66.62          61.97         -13.79         -13.85          23.05           25.4         -152.8          32.87          24.06
     0.146              -19.12          16.83          66.61          61.96         -13.78         -13.84          23.09          25.41         -152.8          32.88           24.1
    0.1593              -19.13          16.83          66.59          61.95         -13.78         -13.84          23.13          25.41         -152.7          32.89          24.14
    0.1726              -19.13          16.83          66.58          61.94         -13.77         -13.84          23.18          25.42         -152.7           32.9          24.18
    0.1858              -19.14          16.83          66.56          61.93         -13.76         -13.83          23.23          25.43         -152.6          32.91          24.22
    0.1991              -19.15          16.82          66.54          61.92         -13.76         -13.82          23.28          25.44         -152.6          32.92          24.27
    0.2124              -19.16          16.82          66.52          61.91         -13.75         -13.82          23.34          25.45         -152.5          32.93          24.33
    0.2257              -19.18          16.82           66.5          61.89         -13.74         -13.81           23.4          25.47         -152.5          32.94          24.39
    0.2389              -19.19          16.82          66.48          61.88         -13.73          -13.8          23.47          25.48         -152.4          32.96          24.45
    0.2522               -19.2          16.82          66.45          61.86         -13.72          -13.8          23.54          25.49         -152.3          32.97          24.52
    0.2655              -19.22          16.81          66.43          61.85         -13.71         -13.79          23.63          25.51         -152.3          32.99           24.6
    0.2788              -19.24          16.81           66.4          61.83          -13.7         -13.78          23.72          25.53         -152.2          33.01          24.68
     0.292              -19.26          16.81          66.36          61.81         -13.69         -13.77          23.82          25.55         -152.1          33.03          24.78
    0.3053              -19.28           16.8          66.33          61.78         -13.68         -13.75          23.93          25.57         -152.0          33.05          24.88
    0.3186               -19.3           16.8          66.28          61.76         -13.66         -13.74          24.05          25.59         -151.9          33.08           25.0
    0.3319              -19.33          16.79          66.24          61.73         -13.64         -13.72          24.19          25.62         -151.7          33.11          25.12
    0.3451              -19.36          16.79          66.19           61.7         -13.62         -13.71          24.35          25.65         -151.6          33.14          25.27
    0.3584              -19.39          16.78          66.13          61.66          -13.6         -13.69          24.52          25.68         -151.4          33.17          25.43
    0.3717              -19.43          16.78          66.06          61.62         -13.58         -13.67          24.72          25.72         -151.3          33.22          25.62
     0.385              -19.47          16.77          65.99          61.57         -13.55         -13.64          24.94          25.77         -151.1          33.26          25.82
    0.3982              -19.52          16.76           65.9          61.52         -13.52         -13.61          25.19          25.81         -150.8          33.32          26.06
    0.4115              -19.57          16.75          65.81          61.46         -13.48         -13.58          25.49          25.87         -150.6          33.38          26.33
    0.4248              -19.64          16.74          65.69          61.39         -13.44         -13.55          25.82          25.94         -150.2          33.45          26.65
    0.4381              -19.71          16.73          65.56          61.31         -13.39          -13.5          26.22          26.01         -149.9          33.53          27.02
    0.4513               -19.8          16.71          65.41          61.21         -13.33         -13.45          26.68           26.1         -149.5          33.62          27.44
    0.4646               -19.9           16.7          65.23           61.1         -13.27         -13.39          27.22          26.21         -149.0          33.74          27.95
    0.4779              -20.02          16.67          65.02          60.97         -13.19         -13.32          27.86          26.33         -148.4          33.87          28.55
    0.4912              -20.17          16.65          64.76          60.81         -13.09         -13.24          28.63          26.48         -147.7          34.03          29.27
